<?xml version="1.0" encoding="utf-8"?>
<!-- Generator: Adobe Illustrator 23.0.2, SVG Export Plug-In . SVG Version: 6.00 Build 0)  -->
<svg version="1.1" id="Слой_1" xmlns="http://www.w3.org/2000/svg" xmlns:xlink="http://www.w3.org/1999/xlink" x="0px" y="0px"
	 viewBox="0 0 95.6 85.7" style="enable-background:new 0 0 95.6 85.7;" xml:space="preserve">
<style type="text/css">
	.st0{fill-rule:evenodd;clip-rule:evenodd;fill:#1A8B0E;}
</style>
<path class="st0" d="M95.6,38c0.6-6.7-5.7-8.7-8.2-8.7c-9.7,0-19.3,0-29,0c1.4-3,3.1-11,1-22.1C58.5,2.8,56-0.1,52.7,0
	c-2.6,0-5.2,2.1-5.4,4.6c-0.3,2.8-1,6.8-1.6,9.5c-2.1,8.7-13.2,20.2-20.2,24.2v42.5c4.8,2.7,9.9,3.6,15.5,3.5
	c8.7-0.2,33.7,0,38.2-0.1c3.2,0,6.4-1.5,7.9-5.4c2.1-5.3-3.3-7.9-3.3-7.9s5.9,0.3,7.3-5c1.4-5.4-4.1-7.6-4.1-7.6
	c3.7-0.4,6-1.4,6.9-4.7c1-3.9-1.5-6.8-5.4-8.5C89,45.2,95,44.2,95.6,38z M19.3,31.6H3c-1.7,0-3,1.3-3,3v48.1c0,1.7,1.3,3,3,3h16.3
	c1.7,0,3-1.3,3-3V34.6C22.3,32.9,20.9,31.6,19.3,31.6z"/>
</svg>
