<?xml version="1.0" encoding="utf-8"?>
<!-- Generator: Adobe Illustrator 23.0.2, SVG Export Plug-In . SVG Version: 6.00 Build 0)  -->
<svg version="1.1" id="Слой_1" xmlns="http://www.w3.org/2000/svg" xmlns:xlink="http://www.w3.org/1999/xlink" x="0px" y="0px"
	 viewBox="0 0 24 31.3" style="enable-background:new 0 0 24 31.3;" xml:space="preserve">
<style type="text/css">
	.st0{fill-rule:evenodd;clip-rule:evenodd;fill:#78C232;}
</style>
<title>25 -Cup- (Solid)</title>
<desc>Created with Sketch.</desc>
<g>
	<g>
		<g>
			<path class="st0" d="M22,9.5c0,1.1-0.6,2.1-1.5,2.7l-0.2,0.1c0.4-1,0.6-2,0.6-3.1v-4l0.2,0C21.6,5.2,22,5.6,22,6V9.5z M13.5,8.8
				l0.9,2.9L12,10.1l-2.5,1.6l0.9-2.9L8,7.1h3.1l0.9-3l1,3h3L13.5,8.8z M13,18.1v1.1h-2v-1.1c0,0,0,0,0,0c0.3,0,0.7,0.1,1,0.1
				C12.3,18.1,12.6,18.1,13,18.1C12.9,18.1,13,18.1,13,18.1L13,18.1z M3.5,12.2C2.6,11.6,2,10.6,2,9.5V6c0-0.5,0.4-0.9,0.9-0.9
				l0.1,0v4c0,1.1,0.2,2.1,0.6,3.1L3.5,12.2z M21.2,3.2l-0.2,0v-2c0-0.6-0.4-1-1-1H4c-0.6,0-1,0.4-1,1v2l-0.2,0C1.3,3.2,0,4.5,0,6
				v3.4c0,1.8,1,3.5,2.5,4.4C2.6,14,2.6,14,2.7,14l2.6,0.9c1,1.1,2.3,2,3.7,2.6v1.6H8.3c-1.8,0-3.3,1.5-3.3,3.3v0.7c0,0.6,0.4,1,1,1
				h12c0.6,0,1-0.4,1-1v-0.7c0-1.8-1.5-3.3-3.3-3.3H15v-1.6c1.4-0.5,2.7-1.5,3.7-2.6l2.6-0.9c0.1,0,0.1-0.1,0.2-0.1
				C23,13,24,11.3,24,9.5V6C24,4.5,22.7,3.2,21.2,3.2L21.2,3.2z"/>
		</g>
	</g>
</g>
</svg>
