<?xml version="1.0" encoding="utf-8"?>
<!-- Generator: Adobe Illustrator 23.0.2, SVG Export Plug-In . SVG Version: 6.00 Build 0)  -->
<svg version="1.1" id="Слой_1" xmlns="http://www.w3.org/2000/svg" xmlns:xlink="http://www.w3.org/1999/xlink" x="0px" y="0px"
	 viewBox="0 0 25.5 29.5" style="enable-background:new 0 0 25.5 29.5;" xml:space="preserve">
<style type="text/css">
	.st0{fill:#1A8B0E;}
</style>
<g>
	<g>
		<path class="st0" d="M24.8,0h-12C12.3,0,12,0.3,12,0.8s0.3,0.8,0.8,0.8H24V28H12.8c-0.4,0-0.8,0.3-0.8,0.8s0.3,0.8,0.8,0.8h12
			c0.4,0,0.8-0.3,0.8-0.8v-28C25.5,0.3,25.2,0,24.8,0z"/>
		<path class="st0" d="M0.8,15.5h17.8l-6.2,4.6c-0.2,0.1-0.3,0.3-0.3,0.5s0,0.4,0.1,0.5c0.1,0.2,0.4,0.3,0.6,0.3
			c0.2,0,0.3,0,0.5-0.1l8-6l0.1-0.1c0,0,0.1-0.1,0.1-0.1l0.1-0.1c0-0.1,0.1-0.2,0.1-0.3s0-0.2-0.1-0.4c0,0-0.1-0.1-0.1-0.1l-8.1-6.1
			C13,8,12.8,8,12.6,8c-0.2,0-0.4,0.1-0.5,0.3C12,8.4,12,8.6,12,8.8c0,0.2,0.1,0.4,0.3,0.5l6.2,4.7H0.8C0.3,14,0,14.3,0,14.7
			S0.3,15.5,0.8,15.5z"/>
	</g>
</g>
</svg>
