<?xml version="1.0" encoding="utf-8"?>
<!-- Generator: Adobe Illustrator 23.0.2, SVG Export Plug-In . SVG Version: 6.00 Build 0)  -->
<svg version="1.1" id="Слой_1" xmlns="http://www.w3.org/2000/svg" xmlns:xlink="http://www.w3.org/1999/xlink" x="0px" y="0px"
	 viewBox="0 0 156.6 154.1" style="enable-background:new 0 0 156.6 154.1;" xml:space="preserve">
<style type="text/css">
	.st0{fill:#FFFFFF;}
</style>
<g>
	<g>
		<path class="st0" d="M9.7,149.3c0,6.3-9.7,6.3-9.7,0c0-29.2,23.8-53,53-53h50.6c29.2,0,53,23.8,53,53c0,6.3-9.7,6.3-9.7,0
			c0-23.8-19.5-43.3-43.3-43.3H53C29.2,106,9.7,125.5,9.7,149.3z"/>
		<path class="st0" d="M78.3,0c24.8,0,44.8,19.9,44.8,44.3c0,24.8-19.9,44.8-44.8,44.8C54,89,34.1,69.1,34.1,44.3
			C34.1,19.9,54,0,78.3,0z M78.3,9.7c-19,0-34.5,15.6-34.5,34.5c0,19.5,15.6,35,34.5,35c19.5,0,35-15.6,35-35
			C113.3,25.3,97.8,9.7,78.3,9.7z"/>
	</g>
</g>
</svg>
