<?xml version="1.0" encoding="UTF-8"?>
<svg xmlns="http://www.w3.org/2000/svg" xmlns:xlink="http://www.w3.org/1999/xlink" width="100pt" height="100pt" viewBox="0 0 100 100" version="1.1">
<g id="surface187606">
<path style=" stroke:none;fill-rule:nonzero;fill:rgb(90.196078%,49.411765%,13.333333%);fill-opacity:1;" d="M 47 0 C 22.1875 0 2 20.1875 2 45 C 2 69.8125 22.1875 90 47 90 C 52.191406 90 55.871094 89.410156 59.117188 88.886719 C 61.953125 88.429688 64.628906 88 68 88 C 84.328125 88 94.398438 99.207031 94.496094 99.320312 C 94.886719 99.765625 95.441406 99.996094 96 99.996094 C 96.371094 99.996094 96.75 99.894531 97.078125 99.679688 C 97.910156 99.144531 98.226562 98.085938 97.824219 97.183594 C 97.605469 96.6875 92.171875 84.96875 70.386719 79.925781 L 69.792969 79.761719 C 64.410156 78.429688 60.0625 76.261719 56.875 73.3125 C 52.757812 69.507812 51.972656 65.667969 51.96875 65.644531 C 51.785156 64.625 50.832031 63.921875 49.820312 64.007812 C 48.789062 64.101562 48 64.964844 48 66 C 48 66.203125 48.011719 70.179688 48.707031 73.9375 C 48.109375 73.980469 47.546875 74 47 74 C 31.011719 74 18 60.988281 18 45 C 18 29.011719 31.011719 16 47 16 C 62.988281 16 76 29.011719 76 45 C 76 46.191406 75.925781 47.398438 75.773438 48.597656 C 72 48 68.25 48 68 48 C 66.835938 48 66 49 66 50.039062 C 66.023438 51.125 66.910156 51.996094 67.996094 52 C 68.035156 52 72.199219 52.039062 75.921875 54.433594 C 82.097656 58.402344 83.574219 64.394531 83.585938 64.445312 C 83.773438 65.269531 84.457031 65.882812 85.296875 65.984375 C 86.132812 66.070312 86.949219 65.644531 87.324219 64.886719 C 90.425781 58.617188 92 51.925781 92 45 C 92 20.1875 71.8125 0 47 0 Z M 77.269531 64.003906 C 76.78125 63.972656 76.398438 64.1875 76.1875 64.554688 C 75.761719 65.296875 76.078125 66.765625 76.933594 68.046875 C 77.800781 69.34375 78.53125 70 79.117188 70 C 79.652344 70 80.191406 69.328125 79.9375 67.707031 C 79.789062 66.738281 79.222656 64.636719 77.792969 64.117188 C 77.609375 64.050781 77.433594 64.015625 77.269531 64.003906 Z M 70.734375 70 C 69.835938 70 69.089844 70.234375 68.628906 70.683594 C 67.449219 71.839844 67.980469 73.871094 69.785156 75.125 C 70.574219 75.671875 71.710938 76 72.824219 76 C 73.957031 76 74.90625 75.660156 75.492188 75.046875 C 76.542969 73.925781 75.9375 72.34375 73.953125 71.007812 C 72.96875 70.347656 71.824219 70 70.734375 70 Z M 70.734375 70 "/>
</g>
</svg>
