<?xml version="1.0" encoding="UTF-8"?>
<svg xmlns="http://www.w3.org/2000/svg" xmlns:xlink="http://www.w3.org/1999/xlink" width="100pt" height="100pt" viewBox="0 0 100 100" version="1.1">
<g id="surface188199">
<path style=" stroke:none;fill-rule:nonzero;fill:rgb(20.392157%,59.607843%,85.882353%);fill-opacity:1;" d="M 48.777344 4.066406 C 35.875 4.351562 22.417969 10.019531 13.070312 22.578125 C -2.0625 42.921875 1.929688 71.054688 22.160156 86.621094 C 30.75 93.230469 40.542969 96.066406 49.871094 96.066406 C 60.078125 96.066406 69.695312 92.640625 76.59375 87.082031 L 76.6875 87.191406 L 79.691406 84.550781 L 69.511719 72.960938 L 65.269531 76.847656 C 63.027344 78.890625 60.867188 80.863281 58.761719 82.890625 C 55.359375 79.003906 51.90625 75.15625 48.457031 71.308594 C 46.796875 69.453125 45.132812 67.597656 43.476562 65.738281 C 43.378906 65.632812 43.289062 65.523438 43.199219 65.410156 L 48.058594 60.867188 L 35.546875 46.738281 L 40.445312 42.148438 L 27.730469 27.992188 L 45.039062 12.355469 L 51.429688 19.269531 L 62.019531 9.867188 C 62.109375 9.894531 62.195312 9.925781 62.285156 9.953125 L 68.34375 16.589844 L 74.007812 11.40625 C 74.007812 11.40625 72.507812 10.015625 71.03125 9.203125 C 70.804688 9.078125 70.59375 9.042969 70.394531 9.046875 C 64.058594 5.664062 56.519531 3.894531 48.777344 4.066406 Z M 77.335938 14.496094 L 72.277344 19.125 L 76.839844 24.1875 L 81.917969 19.621094 Z M 61.941406 15.863281 L 54.117188 22.972656 L 61.15625 30.792969 L 68.96875 23.738281 Z M 44.542969 18.742188 L 33.992188 28.300781 L 43.511719 38.890625 L 54.085938 29.34375 Z M 84.3125 30.871094 L 79.269531 35.464844 L 83.867188 40.550781 L 88.949219 35.941406 Z M 69.507812 32.476562 L 61.695312 39.558594 L 68.730469 47.410156 L 76.5625 40.328125 Z M 52.394531 37.523438 L 41.839844 47.105469 L 51.378906 57.695312 L 61.902344 48.125 Z M 91.34375 47.234375 L 86.273438 51.796875 L 90.875 56.882812 L 95.957031 52.308594 Z M 76.539062 49.933594 L 68.726562 56.996094 L 75.769531 64.859375 L 83.589844 57.761719 Z M 60.191406 56.558594 L 49.640625 66.101562 L 59.136719 76.71875 L 69.726562 67.160156 Z M 83.738281 66.609375 L 75.957031 73.703125 L 83.007812 81.507812 L 90.84375 74.445312 Z M 83.738281 66.609375 "/>
</g>
</svg>
