<?xml version="1.0" encoding="utf-8"?>
<!-- Generator: Adobe Illustrator 23.0.2, SVG Export Plug-In . SVG Version: 6.00 Build 0)  -->
<svg version="1.1"
	 id="Слой_1" xmlns:cc="http://creativecommons.org/ns#" xmlns:dc="http://purl.org/dc/elements/1.1/" xmlns:inkscape="http://www.inkscape.org/namespaces/inkscape" xmlns:rdf="http://www.w3.org/1999/02/22-rdf-syntax-ns#" xmlns:sodipodi="http://sodipodi.sourceforge.net/DTD/sodipodi-0.dtd" xmlns:svg="http://www.w3.org/2000/svg"
	 xmlns="http://www.w3.org/2000/svg" xmlns:xlink="http://www.w3.org/1999/xlink" x="0px" y="0px" viewBox="0 0 90 70"
	 style="enable-background:new 0 0 90 70;" xml:space="preserve">
<style type="text/css">
	.st0{fill:#1A8B0E;}
</style>
<g transform="translate(0,-952.36218)">
	<g>
		<path class="st0" d="M3,952.4c-1.6,0-3,1.4-3,3v15.9c0,1.6,1.4,3,3,3h3v45.1c0,1.6,1.4,3,3,3h72c1.6,0,3-1.4,3-3v-45.1h3
			c1.6,0,3-1.4,3-3v-15.9c0-1.5-1.2-2.8-2.7-3c-12.4,0-24.9,0-37.3,0c-1.6,0-3,1.4-3,3s1.5,3,3,3h34v9.9H6v-9.9h34c1.6,0,3-1.4,3-3
			s-1.5-3-3-3L3,952.4z M12,974.2h66v42.1H12L12,974.2z M30,976.2c-1.6,0-3,1.4-3,3v9.9c0,1.6,1.4,3,3,3h30c1.6,0,3-1.4,3-3v-9.9
			c0-1.5-1.2-2.8-2.7-3C50.2,976.2,40.1,976.2,30,976.2z M33,982.2h24v4H33V982.2z"/>
	</g>
</g>
</svg>
