<?xml version="1.0" encoding="utf-8"?>
<!-- Generator: Adobe Illustrator 23.0.2, SVG Export Plug-In . SVG Version: 6.00 Build 0)  -->
<svg version="1.1" id="Слой_1" xmlns="http://www.w3.org/2000/svg" xmlns:xlink="http://www.w3.org/1999/xlink" x="0px" y="0px"
	 viewBox="0 0 90 56.2" style="enable-background:new 0 0 90 56.2;" xml:space="preserve">
<style type="text/css">
	.st0{fill:#84868D;}
</style>
<title>B___46</title>
<path class="st0" d="M45,0C20.6,0,1.4,25.2,0.6,26.3c-0.8,1.1-0.8,2.5,0,3.6c0.8,1.1,20,26.3,44.4,26.3s43.6-25.2,44.4-26.3
	c0.8-1.1,0.8-2.5,0-3.6C88.6,25.2,69.4,0,45,0z M45,50.2c-17.9,0-33.4-16.5-38.1-22.1C11.6,22.5,27.1,6,45,6
	c17.9,0,33.4,16.5,38.1,22.1C78.4,33.6,62.9,50.2,45,50.2z"/>
<path class="st0" d="M45,11.1c-9.4,0-17,7.6-17,17s7.6,17,17,17s17-7.6,17-17c0,0,0,0,0,0C61.9,18.7,54.4,11.1,45,11.1z M45,39
	c-6,0-11-4.9-11-11c0-6,4.9-11,11-11c6,0,11,4.9,11,11c0,0,0,0,0,0C55.9,34.1,51,39,45,39z"/>
</svg>
