<?xml version="1.0" encoding="utf-8"?>
<!-- Generator: Adobe Illustrator 23.0.2, SVG Export Plug-In . SVG Version: 6.00 Build 0)  -->
<svg version="1.1" id="Слой_1" xmlns="http://www.w3.org/2000/svg" xmlns:xlink="http://www.w3.org/1999/xlink" x="0px" y="0px"
	 viewBox="0 0 59.4 70.8" style="enable-background:new 0 0 59.4 70.8;" xml:space="preserve">
<style type="text/css">
	.st0{fill:#84868D;}
</style>
<g>
	<g>
		<path class="st0" d="M30.3,37.4c0.2-0.2,0.3-0.4,0.3-0.5c2.4-4.6,9.8-18.3,9.8-18.3c0.7-1.2,0.2-2.7-1-3.4l-9.1-4.9
			c-0.6-0.3-1.3-0.4-1.9-0.2c-0.6,0.2-1.2,0.6-1.5,1.2l-9.8,18.3c-0.2,0.3-0.3,0.7-0.3,1.1l-0.3,11.6c0,0.9,0.5,1.8,1.3,2.3
			c0.4,0.2,0.8,0.3,1.2,0.3c0.5,0,1-0.2,1.4-0.5c0,0,6-4.3,9.5-6.7C30.1,37.6,30.2,37.5,30.3,37.4z M30.1,15.9l4.7,2.5l-7.4,13.9
			l-4.5-2.4l-0.2-0.1L30.1,15.9z"/>
		<path class="st0" d="M59.4,2.5c0-1.4-1.1-2.5-2.5-2.5H2.5C1.1,0,0,1.1,0,2.5v65.8c0,1,0.6,1.9,1.5,2.3c0.3,0.1,0.6,0.2,1,0.2
			c0.7,0,1.3-0.3,1.8-0.7l13.8-13.8h38.8c1.4,0,2.5-1.1,2.5-2.5s-1.1-2.5-2.5-2.5H17c-0.7,0-1.3,0.3-1.8,0.7L5,62.3V5h49.3v35.9
			H32.5c-1.4,0-2.5,1.1-2.5,2.5s1.1,2.5,2.5,2.5h24.4c1.4,0,2.5-1.1,2.5-2.5v-0.1V2.5z"/>
	</g>
</g>
</svg>
